<svg width="212" height="46" viewBox="0 0 212 46" fill="none" xmlns="http://www.w3.org/2000/svg">
<g clip-path="url(#clip0_164_193)">
<path d="M12.6122 18.9247C10.2949 18.9247 7.74973 19.9952 6.30616 21.5628V19.46H1.74756V45.6879H6.30616V36.4735C7.74973 38.0412 10.2949 39.1118 12.6122 39.1118C18.6144 39.1118 22.6412 35.0592 22.6412 29.0182C22.6412 22.9774 18.6144 18.9247 12.6122 18.9247ZM12.1563 22.9774C15.7273 22.9774 18.0825 25.3861 18.0825 29.0182C18.0825 32.6503 15.7273 35.0592 12.1563 35.0592C8.66143 35.0592 6.30616 32.6503 6.30616 29.0182C6.30616 25.3861 8.66143 22.9774 12.1563 22.9774ZM34.4961 39.1118C36.7375 39.1118 39.2069 38.0794 40.6502 36.5118V38.5765H45.209V19.46H40.6502V21.5245C39.2069 19.957 36.7375 18.9247 34.4961 18.9247C28.57 18.9247 24.6192 22.9774 24.6192 29.0182C24.6192 35.0592 28.57 39.1118 34.4961 39.1118ZM34.9519 35.0592C31.4951 35.0592 29.1778 32.6503 29.1778 29.0182C29.1778 25.3861 31.4951 22.9774 34.9519 22.9774C38.3711 22.9774 40.6502 25.3861 40.6502 29.0182C40.6502 32.6503 38.3711 35.0592 34.9519 35.0592ZM56.3962 39.1118C61.6765 39.1118 65.2096 36.5883 65.2096 32.8033C65.2096 29.3241 63.1961 27.8712 56.8521 26.5331C54.1547 25.9213 53.281 25.4243 53.281 24.6214C53.281 23.5127 54.5346 22.748 56.3962 22.748C58.0677 22.748 59.587 23.6274 60.1569 24.9273L64.3358 23.895C63.2341 20.9128 60.0429 18.9247 56.3962 18.9247C51.7997 18.9247 48.7224 21.2952 48.7224 24.8508C48.7224 28.0242 50.47 29.2859 55.9783 30.5476C59.511 31.2357 60.6507 31.8857 60.6507 32.8033C60.6507 34.2945 58.9415 35.2886 56.3962 35.2886C53.8508 35.2886 52.0276 33.9885 51.8756 32.0769H47.5827C47.7347 36.2824 51.2678 39.1118 56.3962 39.1118ZM76.6766 39.1118C78.918 39.1118 81.3871 38.0794 82.8307 36.5118V38.5765H87.3892V19.46H82.8307V21.5245C81.3871 19.957 78.918 18.9247 76.6766 18.9247C70.7504 18.9247 66.7998 22.9774 66.7998 29.0182C66.7998 35.0592 70.7504 39.1118 76.6766 39.1118ZM77.1325 35.0592C73.6754 35.0592 71.3583 32.6503 71.3583 29.0182C71.3583 25.3861 73.6754 22.9774 77.1325 22.9774C80.5513 22.9774 82.8307 25.3861 82.8307 29.0182C82.8307 32.6503 80.5513 35.0592 77.1325 35.0592ZM90.8942 38.5765H95.4527V12.3486H90.8942V38.5765Z" fill="white"/>
<path d="M117.976 39.1118C124.169 39.1118 128.271 35.0592 128.271 29.0182C128.271 22.9774 124.169 18.9247 117.976 18.9247C111.784 18.9247 107.681 22.9774 107.681 29.0182C107.681 35.0592 111.784 39.1118 117.976 39.1118ZM117.976 35.0592C114.519 35.0592 112.24 32.6503 112.24 29.0182C112.24 25.3861 114.519 22.9774 117.976 22.9774C121.433 22.9774 123.713 25.3861 123.713 29.0182C123.713 32.6503 121.433 35.0592 117.976 35.0592ZM130.626 38.5765H135.184V27.2213C135.184 24.6597 137.046 22.9774 139.819 22.9774C142.592 22.9774 144.454 24.6597 144.454 27.2213V38.5765H149.012V26.686C149.012 22.0216 145.555 18.9247 140.351 18.9247C138.49 18.9247 136.438 19.6894 135.184 20.8746V19.46H130.626V38.5765ZM152.513 38.5765H157.072V12.3486H152.513V38.5765ZM161.306 16.5543H165.864V12.3486H161.306V16.5543ZM161.306 38.5765H165.864V19.46H161.306V38.5765ZM169.356 38.5765H173.915V27.2213C173.915 24.6597 175.776 22.9774 178.549 22.9774C181.322 22.9774 183.184 24.6597 183.184 27.2213V38.5765H187.742V26.686C187.742 22.0216 184.286 18.9247 179.081 18.9247C177.22 18.9247 175.168 19.6894 173.915 20.8746V19.46H169.356V38.5765ZM200.408 39.1118C205.043 39.1118 208.993 36.2824 210.247 32.0769H205.613C204.739 33.9885 202.649 35.2886 200.408 35.2886C197.445 35.2886 195.165 33.3003 194.748 30.2799H210.323L210.703 29.8976V29.0182C210.703 22.9774 206.6 18.9247 200.408 18.9247C194.216 18.9247 190.113 22.9774 190.113 29.0182C190.113 35.0592 194.216 39.1118 200.408 39.1118ZM195.052 26.4566C195.925 24.0862 197.863 22.748 200.408 22.748C202.953 22.748 204.891 24.0862 205.764 26.4566H195.052Z" fill="black"/>
<path d="M102.574 38.713C104.26 38.713 105.627 37.3375 105.627 35.6406C105.627 33.9437 104.26 32.5681 102.574 32.5681C100.888 32.5681 99.5212 33.9437 99.5212 35.6406C99.5212 37.3375 100.888 38.713 102.574 38.713Z" fill="#FF0000"/>
</g>
<defs>
<clipPath id="clip0_164_193">
<rect width="212" height="45.7456" fill="white"/>
</clipPath>
</defs>
</svg>
